<svg width="74" height="57" viewBox="0 0 74 57" fill="none" xmlns="http://www.w3.org/2000/svg">
<path d="M7.08984 0H23.169V38.2899L7.08984 49.9571V0Z" fill="#1BAD58"/>
<path d="M25.6035 0H42.1503V30.4162L25.6035 37.0304V0Z" fill="#4FB854"/>
<path d="M60.2219 0V27.1053L44.3086 30.4162V0H60.2219Z" fill="#A8CC48"/>
<path d="M73.91 25.7404C42.2343 24.4508 18.8546 36.5328 0 56.1039C24.3752 38.4635 49.0822 28.0784 73.91 25.7404Z" fill="#231F20"/>
<path d="M9.60938 12.5875V2.62474H14.9339C15.9937 2.5533 17.0491 2.81716 17.9506 3.37893C18.2552 3.58661 18.5045 3.86557 18.6767 4.19155C18.8489 4.51753 18.9388 4.88064 18.9386 5.2493C18.9441 5.7303 18.7962 6.20054 18.5163 6.59175C18.2039 7.00793 17.7842 7.33122 17.302 7.52694C16.675 7.76972 16.0058 7.8851 15.3336 7.86632L15.6202 7.11214C16.3057 7.09563 16.9883 7.20556 17.6339 7.43644C18.1532 7.62114 18.6086 7.95094 18.9462 8.3867C19.2625 8.82458 19.4243 9.35518 19.4062 9.89507C19.4172 10.2966 19.3236 10.694 19.1345 11.0484C18.9454 11.4028 18.6674 11.7019 18.3277 11.9163C17.3783 12.4694 16.2874 12.7317 15.1903 12.6705L9.60938 12.5875ZM12.9202 10.2571H14.9415C15.2325 10.2781 15.5228 10.2069 15.7711 10.0535C15.8565 9.98269 15.9252 9.89395 15.9724 9.79357C16.0196 9.69319 16.044 9.58364 16.044 9.47273C16.044 9.36181 16.0196 9.25227 15.9724 9.15189C15.9252 9.05151 15.8565 8.96278 15.7711 8.89201C15.5228 8.73859 15.2325 8.66734 14.9415 8.68838H12.6789V6.48616H14.4663C14.7588 6.50755 15.0509 6.43913 15.3035 6.29008C15.3887 6.22821 15.4573 6.1463 15.5034 6.05159C15.5494 5.95688 15.5714 5.85229 15.5674 5.74706C15.5733 5.63943 15.5522 5.53204 15.5061 5.43459C15.46 5.33715 15.3904 5.25273 15.3035 5.18897C15.0478 5.04901 14.757 4.98614 14.4663 5.00797H12.9052L12.9202 10.2571Z" fill="#231F20"/>
<path d="M31.7963 12.5878V8.22104L32.5505 10.2272L28.0254 2.625H31.57L34.6245 7.82132H32.5656L35.6502 2.625H38.8932L34.3681 10.2272L35.1223 8.22104V12.5878H31.7963Z" fill="#231F20"/>
<path d="M53.1095 12.8137C52.3563 12.82 51.6081 12.6923 50.8997 12.4366C50.2461 12.2005 49.6461 11.8364 49.1349 11.3657C48.6372 10.9018 48.2416 10.3393 47.9735 9.71399C47.4203 8.36574 47.4203 6.85389 47.9735 5.50564C48.2378 4.87824 48.6339 4.31497 49.1349 3.85399C49.6463 3.38165 50.2461 3.01512 50.8997 2.7755C51.6081 2.51976 52.3563 2.39207 53.1095 2.39841C54.0009 2.38288 54.8854 2.55772 55.7039 2.91126C56.445 3.2475 57.0886 3.76652 57.5742 4.41962L55.455 6.31262C55.1881 5.96698 54.8579 5.67522 54.4821 5.45285C54.1163 5.24753 53.7024 5.14341 53.2829 5.15118C52.956 5.14528 52.631 5.20158 52.3251 5.3171C52.0387 5.42254 51.7805 5.59291 51.5709 5.81486C51.3608 6.04412 51.1992 6.31348 51.0958 6.60676C50.9772 6.93817 50.9185 7.28802 50.9223 7.63998C50.9184 7.9895 50.9772 8.33688 51.0958 8.66567C51.1992 8.95895 51.3608 9.22831 51.5709 9.45757C51.7805 9.67952 52.0387 9.84989 52.3251 9.95533C52.6305 10.0734 52.9556 10.1323 53.2829 10.1288C53.703 10.1339 54.1169 10.0272 54.4821 9.81957C54.8579 9.59721 55.1881 9.30544 55.455 8.95981L57.5742 10.8528C57.0847 11.5021 56.4421 12.0203 55.7039 12.3612C54.8818 12.6974 53.9968 12.8518 53.1095 12.8137Z" fill="#231F20"/>
</svg>
