<svg width="269" height="61" viewBox="0 0 269 61" fill="none" xmlns="http://www.w3.org/2000/svg">
<path d="M7.08984 4.78223H23.169V43.0721L7.08984 54.7393V4.78223Z" fill="#1BAD58"/>
<path d="M25.6035 4.78223H42.1503V35.1984L25.6035 41.8126V4.78223Z" fill="#4FB854"/>
<path d="M60.2219 4.78223V31.8876L44.3086 35.1984V4.78223H60.2219Z" fill="#A8CC48"/>
<path d="M73.91 30.5227C42.2343 29.233 18.8546 41.315 0 60.8861C24.3752 43.2457 49.0822 32.8606 73.91 30.5227Z" fill="white"/>
<path d="M9.60938 17.3697V7.40697H14.9339C15.9937 7.33553 17.0491 7.59938 17.9506 8.16115C18.2552 8.36883 18.5045 8.6478 18.6767 8.97377C18.8489 9.29975 18.9388 9.66287 18.9386 10.0315C18.9441 10.5125 18.7962 10.9828 18.5163 11.374C18.2039 11.7902 17.7842 12.1134 17.302 12.3092C16.675 12.5519 16.0058 12.6673 15.3336 12.6485L15.6202 11.8944C16.3057 11.8779 16.9883 11.9878 17.6339 12.2187C18.1532 12.4034 18.6086 12.7332 18.9462 13.1689C19.2625 13.6068 19.4243 14.1374 19.4062 14.6773C19.4172 15.0788 19.3236 15.4763 19.1345 15.8306C18.9454 16.185 18.6674 16.4841 18.3277 16.6985C17.3783 17.2517 16.2874 17.5139 15.1903 17.4527L9.60938 17.3697ZM12.9202 15.0393H14.9415C15.2325 15.0603 15.5228 14.9891 15.7711 14.8357C15.8565 14.7649 15.9252 14.6762 15.9724 14.5758C16.0196 14.4754 16.044 14.3659 16.044 14.255C16.044 14.144 16.0196 14.0345 15.9724 13.9341C15.9252 13.8337 15.8565 13.745 15.7711 13.6742C15.5228 13.5208 15.2325 13.4496 14.9415 13.4706H12.6789V11.2684H14.4663C14.7588 11.2898 15.0509 11.2214 15.3035 11.0723C15.3887 11.0104 15.4573 10.9285 15.5034 10.8338C15.5494 10.7391 15.5714 10.6345 15.5674 10.5293C15.5733 10.4217 15.5522 10.3143 15.5061 10.2168C15.46 10.1194 15.3904 10.035 15.3035 9.97119C15.0478 9.83124 14.757 9.76837 14.4663 9.79019H12.9052L12.9202 15.0393Z" fill="white"/>
<path d="M31.7963 17.37V13.0033L32.5505 15.0094L28.0254 7.40723H31.57L34.6245 12.6035H32.5656L35.6502 7.40723H38.8932L34.3681 15.0094L35.1223 13.0033V17.37H31.7963Z" fill="white"/>
<path d="M53.1095 17.5959C52.3563 17.6022 51.6081 17.4746 50.8997 17.2188C50.2461 16.9827 49.6461 16.6186 49.1349 16.1479C48.6372 15.684 48.2416 15.1215 47.9735 14.4962C47.4203 13.148 47.4203 11.6361 47.9735 10.2879C48.2378 9.66046 48.6339 9.0972 49.1349 8.63621C49.6463 8.16388 50.2461 7.79735 50.8997 7.55773C51.6081 7.30199 52.3563 7.1743 53.1095 7.18064C54.0009 7.16511 54.8854 7.33995 55.7039 7.69348C56.445 8.02973 57.0886 8.54875 57.5742 9.20185L55.455 11.0948C55.1881 10.7492 54.8579 10.4574 54.4821 10.2351C54.1163 10.0298 53.7024 9.92563 53.2829 9.93341C52.956 9.92751 52.631 9.98381 52.3251 10.0993C52.0387 10.2048 51.7805 10.3751 51.5709 10.5971C51.3608 10.8263 51.1992 11.0957 51.0958 11.389C50.9772 11.7204 50.9185 12.0702 50.9223 12.4222C50.9184 12.7717 50.9772 13.1191 51.0958 13.4479C51.1992 13.7412 51.3608 14.0105 51.5709 14.2398C51.7805 14.4617 52.0387 14.6321 52.3251 14.7376C52.6305 14.8556 52.9556 14.9145 53.2829 14.911C53.703 14.9161 54.1169 14.8094 54.4821 14.6018C54.8579 14.3794 55.1881 14.0877 55.455 13.742L57.5742 15.635C57.0847 16.2843 56.4421 16.8025 55.7039 17.1434C54.8818 17.4797 53.9968 17.634 53.1095 17.5959Z" fill="white"/>
<path d="M77.9871 18V5.22H82.9551C84.5391 5.22 85.7511 5.502 86.5911 6.066C87.4311 6.618 87.8511 7.494 87.8511 8.694C87.8511 9.222 87.7431 9.684 87.5271 10.08C87.3111 10.464 86.9931 10.77 86.5731 10.998C86.1651 11.226 85.6671 11.364 85.0791 11.412V11.376C86.1471 11.448 86.9631 11.76 87.5271 12.312C88.1031 12.852 88.3911 13.572 88.3911 14.472C88.3911 15.66 87.9711 16.548 87.1311 17.136C86.3031 17.712 85.1151 18 83.5671 18H77.9871ZM80.7231 15.768H83.4411C84.1011 15.768 84.6291 15.636 85.0251 15.372C85.4331 15.096 85.6371 14.688 85.6371 14.148C85.6371 13.608 85.4331 13.2 85.0251 12.924C84.6291 12.636 84.1011 12.492 83.4411 12.492H80.7231V15.768ZM80.7231 10.512H82.8831C83.5551 10.512 84.0891 10.38 84.4851 10.116C84.8931 9.852 85.0971 9.474 85.0971 8.982C85.0971 8.454 84.8991 8.07 84.5031 7.83C84.1191 7.578 83.5791 7.452 82.8831 7.452H80.7231V10.512ZM92.6631 18.216C91.6671 18.216 90.8511 17.988 90.2151 17.532C89.5911 17.064 89.2791 16.416 89.2791 15.588C89.2791 14.736 89.5431 14.082 90.0711 13.626C90.6111 13.158 91.4031 12.816 92.4471 12.6L95.5611 11.988C95.5611 11.364 95.4171 10.896 95.1291 10.584C94.8531 10.26 94.4511 10.098 93.9231 10.098C93.4071 10.098 93.0051 10.218 92.7171 10.458C92.4291 10.686 92.2431 11.028 92.1591 11.484L89.4411 11.358C89.6211 10.302 90.0951 9.504 90.8631 8.964C91.6431 8.412 92.6631 8.136 93.9231 8.136C95.3631 8.136 96.4431 8.478 97.1631 9.162C97.8951 9.846 98.2611 10.848 98.2611 12.168V15.462C98.2611 15.738 98.3031 15.924 98.3871 16.02C98.4831 16.104 98.6211 16.146 98.8011 16.146H99.0711V18C98.9871 18.024 98.8491 18.048 98.6571 18.072C98.4771 18.096 98.2971 18.108 98.1171 18.108C97.7331 18.108 97.3731 18.042 97.0371 17.91C96.7131 17.778 96.4491 17.556 96.2451 17.244C96.0411 16.92 95.9391 16.464 95.9391 15.876L96.1731 16.056C96.0531 16.488 95.8371 16.866 95.5251 17.19C95.2251 17.514 94.8291 17.766 94.3371 17.946C93.8571 18.126 93.2991 18.216 92.6631 18.216ZM93.3111 16.362C93.7551 16.362 94.1451 16.278 94.4811 16.11C94.8171 15.93 95.0811 15.672 95.2731 15.336C95.4651 15 95.5611 14.604 95.5611 14.148V13.68L93.3651 14.148C92.9331 14.232 92.6031 14.376 92.3751 14.58C92.1591 14.772 92.0511 15.024 92.0511 15.336C92.0511 15.66 92.1591 15.912 92.3751 16.092C92.5911 16.272 92.9031 16.362 93.3111 16.362ZM105.352 18.216C104.68 18.216 104.092 18.072 103.588 17.784C103.096 17.496 102.712 17.094 102.436 16.578L102.382 18H99.808V5.22H102.508V9.72C102.76 9.276 103.132 8.904 103.624 8.604C104.116 8.292 104.692 8.136 105.352 8.136C106.168 8.136 106.876 8.346 107.476 8.766C108.076 9.174 108.538 9.756 108.862 10.512C109.198 11.268 109.366 12.156 109.366 13.176C109.366 14.196 109.198 15.084 108.862 15.84C108.538 16.596 108.076 17.184 107.476 17.604C106.876 18.012 106.168 18.216 105.352 18.216ZM104.596 16.146C105.196 16.146 105.676 15.888 106.036 15.372C106.408 14.844 106.594 14.112 106.594 13.176C106.594 12.24 106.414 11.514 106.054 10.998C105.694 10.47 105.214 10.206 104.614 10.206C104.17 10.206 103.786 10.326 103.462 10.566C103.15 10.794 102.91 11.13 102.742 11.574C102.586 12.018 102.508 12.552 102.508 13.176C102.508 13.788 102.586 14.316 102.742 14.76C102.91 15.204 103.15 15.546 103.462 15.786C103.786 16.026 104.164 16.146 104.596 16.146ZM113.45 18.216C112.454 18.216 111.638 17.988 111.002 17.532C110.378 17.064 110.066 16.416 110.066 15.588C110.066 14.736 110.33 14.082 110.858 13.626C111.398 13.158 112.19 12.816 113.234 12.6L116.348 11.988C116.348 11.364 116.204 10.896 115.916 10.584C115.64 10.26 115.238 10.098 114.71 10.098C114.194 10.098 113.792 10.218 113.504 10.458C113.216 10.686 113.03 11.028 112.946 11.484L110.228 11.358C110.408 10.302 110.882 9.504 111.65 8.964C112.43 8.412 113.45 8.136 114.71 8.136C116.15 8.136 117.23 8.478 117.95 9.162C118.682 9.846 119.048 10.848 119.048 12.168V15.462C119.048 15.738 119.09 15.924 119.174 16.02C119.27 16.104 119.408 16.146 119.588 16.146H119.858V18C119.774 18.024 119.636 18.048 119.444 18.072C119.264 18.096 119.084 18.108 118.904 18.108C118.52 18.108 118.16 18.042 117.824 17.91C117.5 17.778 117.236 17.556 117.032 17.244C116.828 16.92 116.726 16.464 116.726 15.876L116.96 16.056C116.84 16.488 116.624 16.866 116.312 17.19C116.012 17.514 115.616 17.766 115.124 17.946C114.644 18.126 114.086 18.216 113.45 18.216ZM114.098 16.362C114.542 16.362 114.932 16.278 115.268 16.11C115.604 15.93 115.868 15.672 116.06 15.336C116.252 15 116.348 14.604 116.348 14.148V13.68L114.152 14.148C113.72 14.232 113.39 14.376 113.162 14.58C112.946 14.772 112.838 15.024 112.838 15.336C112.838 15.66 112.946 15.912 113.162 16.092C113.378 16.272 113.69 16.362 114.098 16.362ZM124.204 18C123.208 18 122.476 17.772 122.008 17.316C121.54 16.848 121.306 16.11 121.306 15.102V6.084H124.006V14.778C124.006 15.246 124.102 15.564 124.294 15.732C124.498 15.9 124.798 15.984 125.194 15.984H126.544V18H124.204ZM119.758 10.368V8.352H126.544V10.368H119.758ZM130.835 18.216C129.839 18.216 129.059 17.898 128.495 17.262C127.943 16.614 127.667 15.714 127.667 14.562V8.352H130.367V13.932C130.367 14.676 130.481 15.222 130.709 15.57C130.937 15.906 131.297 16.074 131.789 16.074C132.341 16.074 132.767 15.888 133.067 15.516C133.379 15.132 133.535 14.562 133.535 13.806V8.352H136.235V18H133.769L133.697 15.228L134.039 15.3C133.895 16.26 133.553 16.986 133.013 17.478C132.473 17.97 131.747 18.216 130.835 18.216ZM138.06 18V8.352H140.49L140.598 11.178L140.256 11.088C140.352 10.368 140.544 9.792 140.832 9.36C141.132 8.928 141.504 8.616 141.948 8.424C142.392 8.232 142.878 8.136 143.406 8.136C144.102 8.136 144.69 8.286 145.17 8.586C145.662 8.886 146.034 9.312 146.286 9.864C146.55 10.404 146.682 11.046 146.682 11.79V18H143.982V12.69C143.982 12.174 143.94 11.736 143.856 11.376C143.772 11.016 143.622 10.746 143.406 10.566C143.19 10.374 142.89 10.278 142.506 10.278C141.942 10.278 141.51 10.488 141.21 10.908C140.91 11.316 140.76 11.91 140.76 12.69V18H138.06ZM151.734 18.216C150.918 18.216 150.21 18.012 149.61 17.604C149.022 17.184 148.566 16.602 148.242 15.858C147.93 15.102 147.774 14.208 147.774 13.176C147.774 12.144 147.936 11.256 148.26 10.512C148.584 9.756 149.04 9.174 149.628 8.766C150.228 8.346 150.93 8.136 151.734 8.136C152.418 8.136 153.006 8.28 153.498 8.568C154.002 8.844 154.38 9.228 154.632 9.72V5.22H157.332V18H154.758L154.704 16.578C154.44 17.094 154.044 17.496 153.516 17.784C153 18.072 152.406 18.216 151.734 18.216ZM152.616 16.146C153.048 16.146 153.414 16.032 153.714 15.804C154.014 15.576 154.242 15.246 154.398 14.814C154.554 14.37 154.632 13.824 154.632 13.176C154.632 12.516 154.554 11.97 154.398 11.538C154.242 11.094 154.014 10.764 153.714 10.548C153.414 10.32 153.048 10.206 152.616 10.206C151.98 10.206 151.476 10.476 151.104 11.016C150.732 11.544 150.546 12.264 150.546 13.176C150.546 14.076 150.732 14.796 151.104 15.336C151.488 15.876 151.992 16.146 152.616 16.146ZM163.326 18.216C162.342 18.216 161.484 18.012 160.752 17.604C160.032 17.184 159.468 16.596 159.06 15.84C158.664 15.084 158.466 14.196 158.466 13.176C158.466 12.156 158.664 11.274 159.06 10.53C159.468 9.774 160.032 9.186 160.752 8.766C161.472 8.346 162.324 8.136 163.308 8.136C164.268 8.136 165.102 8.346 165.81 8.766C166.518 9.186 167.064 9.786 167.448 10.566C167.844 11.346 168.042 12.276 168.042 13.356V13.896H161.256C161.292 14.664 161.496 15.234 161.868 15.606C162.252 15.978 162.756 16.164 163.38 16.164C163.836 16.164 164.214 16.068 164.514 15.876C164.826 15.684 165.048 15.39 165.18 14.994L167.898 15.156C167.646 16.116 167.112 16.866 166.296 17.406C165.48 17.946 164.49 18.216 163.326 18.216ZM161.256 12.24H165.27C165.234 11.532 165.036 11.004 164.676 10.656C164.328 10.308 163.872 10.134 163.308 10.134C162.744 10.134 162.276 10.32 161.904 10.692C161.544 11.052 161.328 11.568 161.256 12.24ZM176.034 18V13.032L171.588 5.22H174.612L177.402 10.368L180.174 5.22H183.198L178.77 13.032V18H176.034ZM185.813 18.216C184.817 18.216 184.037 17.898 183.473 17.262C182.921 16.614 182.645 15.714 182.645 14.562V8.352H185.345V13.932C185.345 14.676 185.459 15.222 185.687 15.57C185.915 15.906 186.275 16.074 186.767 16.074C187.319 16.074 187.745 15.888 188.045 15.516C188.357 15.132 188.513 14.562 188.513 13.806V8.352H191.213V18H188.747L188.675 15.228L189.017 15.3C188.873 16.26 188.531 16.986 187.991 17.478C187.451 17.97 186.725 18.216 185.813 18.216ZM193.039 18V8.352H195.469L195.577 11.178L195.235 11.088C195.331 10.368 195.523 9.792 195.811 9.36C196.111 8.928 196.483 8.616 196.927 8.424C197.371 8.232 197.857 8.136 198.385 8.136C199.081 8.136 199.669 8.286 200.149 8.586C200.641 8.886 201.013 9.312 201.265 9.864C201.529 10.404 201.661 11.046 201.661 11.79V18H198.961V12.69C198.961 12.174 198.919 11.736 198.835 11.376C198.751 11.016 198.601 10.746 198.385 10.566C198.169 10.374 197.869 10.278 197.485 10.278C196.921 10.278 196.489 10.488 196.189 10.908C195.889 11.316 195.739 11.91 195.739 12.69V18H193.039ZM206.442 18.216C205.446 18.216 204.666 17.898 204.102 17.262C203.55 16.614 203.274 15.714 203.274 14.562V8.352H205.974V13.932C205.974 14.676 206.088 15.222 206.316 15.57C206.544 15.906 206.904 16.074 207.396 16.074C207.948 16.074 208.374 15.888 208.674 15.516C208.986 15.132 209.142 14.562 209.142 13.806V8.352H211.842V18H209.376L209.304 15.228L209.646 15.3C209.502 16.26 209.16 16.986 208.62 17.478C208.08 17.97 207.354 18.216 206.442 18.216ZM217.614 18.216C216.618 18.216 215.784 18.078 215.112 17.802C214.44 17.514 213.924 17.13 213.564 16.65C213.216 16.158 213.018 15.594 212.97 14.958L215.706 14.868C215.79 15.324 215.982 15.678 216.282 15.93C216.582 16.182 217.026 16.308 217.614 16.308C218.094 16.308 218.466 16.23 218.73 16.074C219.006 15.918 219.144 15.678 219.144 15.354C219.144 15.15 219.096 14.982 219 14.85C218.904 14.706 218.712 14.586 218.424 14.49C218.148 14.382 217.734 14.286 217.182 14.202C216.162 14.022 215.364 13.812 214.788 13.572C214.212 13.332 213.804 13.02 213.564 12.636C213.324 12.252 213.204 11.784 213.204 11.232C213.204 10.308 213.558 9.564 214.266 9C214.986 8.424 216.06 8.136 217.488 8.136C218.4 8.136 219.162 8.28 219.774 8.568C220.398 8.856 220.878 9.252 221.214 9.756C221.562 10.248 221.778 10.812 221.862 11.448L219.144 11.556C219.108 11.244 219.012 10.98 218.856 10.764C218.712 10.536 218.526 10.362 218.298 10.242C218.07 10.11 217.794 10.044 217.47 10.044C216.99 10.044 216.618 10.146 216.354 10.35C216.102 10.542 215.976 10.8 215.976 11.124C215.976 11.364 216.03 11.562 216.138 11.718C216.258 11.862 216.45 11.982 216.714 12.078C216.978 12.174 217.332 12.252 217.776 12.312C218.808 12.456 219.624 12.66 220.224 12.924C220.836 13.176 221.274 13.494 221.538 13.878C221.802 14.262 221.934 14.736 221.934 15.3C221.934 15.924 221.754 16.452 221.394 16.884C221.034 17.316 220.53 17.646 219.882 17.874C219.246 18.102 218.49 18.216 217.614 18.216ZM230.823 18.288C229.335 18.288 228.201 17.994 227.421 17.406C226.641 16.806 226.251 15.954 226.251 14.85C226.251 14.298 226.335 13.806 226.503 13.374C226.683 12.942 226.971 12.534 227.367 12.15C227.763 11.766 228.279 11.382 228.915 10.998C228.639 10.698 228.399 10.404 228.195 10.116C228.003 9.816 227.853 9.516 227.745 9.216C227.637 8.904 227.583 8.562 227.583 8.19C227.583 7.194 227.913 6.402 228.573 5.814C229.245 5.226 230.205 4.932 231.453 4.932C232.305 4.932 233.019 5.064 233.595 5.328C234.171 5.592 234.603 5.958 234.891 6.426C235.179 6.882 235.323 7.404 235.323 7.992C235.323 8.748 235.095 9.39 234.639 9.918C234.195 10.434 233.505 10.956 232.569 11.484L234.585 14.004C234.885 13.56 235.041 12.924 235.053 12.096L237.789 12.366C237.741 13.05 237.591 13.71 237.339 14.346C237.087 14.982 236.757 15.528 236.349 15.984L238.095 18H234.909L234.441 17.442C234.057 17.694 233.547 17.898 232.911 18.054C232.287 18.21 231.591 18.288 230.823 18.288ZM231.039 15.948C231.435 15.948 231.765 15.906 232.029 15.822C232.305 15.738 232.521 15.636 232.677 15.516L230.337 12.636C229.893 12.924 229.569 13.218 229.365 13.518C229.161 13.818 229.059 14.16 229.059 14.544C229.059 14.964 229.227 15.306 229.563 15.57C229.911 15.822 230.403 15.948 231.039 15.948ZM231.183 9.9C231.507 9.72 231.765 9.546 231.957 9.378C232.161 9.198 232.311 9.018 232.407 8.838C232.503 8.658 232.551 8.454 232.551 8.226C232.551 7.914 232.455 7.674 232.263 7.506C232.083 7.326 231.831 7.236 231.507 7.236C231.147 7.236 230.865 7.332 230.661 7.524C230.469 7.716 230.373 7.974 230.373 8.298C230.373 8.466 230.397 8.634 230.445 8.802C230.493 8.958 230.577 9.126 230.697 9.306C230.829 9.486 230.991 9.684 231.183 9.9ZM248.13 18.288C246.966 18.288 245.928 18.024 245.016 17.496C244.116 16.968 243.408 16.206 242.892 15.21C242.388 14.214 242.136 13.02 242.136 11.628C242.136 10.272 242.382 9.096 242.874 8.1C243.366 7.092 244.068 6.312 244.98 5.76C245.892 5.208 246.96 4.932 248.184 4.932C249.852 4.932 251.148 5.346 252.072 6.174C253.008 6.99 253.608 8.16 253.872 9.684L251.028 9.792C250.884 8.988 250.572 8.364 250.092 7.92C249.612 7.464 248.976 7.236 248.184 7.236C247.5 7.236 246.918 7.416 246.438 7.776C245.958 8.136 245.592 8.646 245.34 9.306C245.088 9.966 244.962 10.74 244.962 11.628C244.962 12.528 245.088 13.308 245.34 13.968C245.604 14.616 245.976 15.114 246.456 15.462C246.936 15.81 247.506 15.984 248.166 15.984C249.03 15.984 249.696 15.744 250.164 15.264C250.644 14.772 250.944 14.094 251.064 13.23L253.926 13.338C253.758 14.382 253.428 15.27 252.936 16.002C252.444 16.734 251.796 17.298 250.992 17.694C250.2 18.09 249.246 18.288 248.13 18.288ZM259.463 18.216C258.479 18.216 257.621 18.012 256.889 17.604C256.157 17.184 255.587 16.596 255.179 15.84C254.771 15.084 254.567 14.196 254.567 13.176C254.567 12.156 254.771 11.274 255.179 10.53C255.587 9.774 256.157 9.186 256.889 8.766C257.621 8.346 258.479 8.136 259.463 8.136C260.447 8.136 261.305 8.346 262.037 8.766C262.769 9.186 263.339 9.774 263.747 10.53C264.155 11.274 264.359 12.156 264.359 13.176C264.359 14.196 264.155 15.084 263.747 15.84C263.339 16.596 262.769 17.184 262.037 17.604C261.305 18.012 260.447 18.216 259.463 18.216ZM259.463 16.146C260.135 16.146 260.657 15.888 261.029 15.372C261.401 14.844 261.587 14.112 261.587 13.176C261.587 12.24 261.401 11.514 261.029 10.998C260.657 10.47 260.135 10.206 259.463 10.206C258.791 10.206 258.269 10.47 257.897 10.998C257.525 11.514 257.339 12.24 257.339 13.176C257.339 14.112 257.525 14.844 257.897 15.372C258.269 15.888 258.791 16.146 259.463 16.146ZM265.154 18V15.246H268.088V18H265.154Z" fill="white"/>
<path d="M80.0416 33.1584C79.408 33.1584 78.8503 33.0132 78.3685 32.7228C77.8867 32.4258 77.5105 32.0034 77.2399 31.4556C76.9693 30.9078 76.834 30.2544 76.834 29.4954C76.834 28.743 76.966 28.0929 77.23 27.5451C77.5006 26.9907 77.8768 26.565 78.3586 26.268C78.8404 25.9644 79.4047 25.8126 80.0515 25.8126C80.9227 25.8126 81.5992 26.0304 82.081 26.466C82.5628 26.9016 82.8763 27.5055 83.0215 28.2777L81.9028 28.3371C81.8104 27.8553 81.6124 27.4791 81.3088 27.2085C81.0052 26.9313 80.5861 26.7927 80.0515 26.7927C79.6225 26.7927 79.2496 26.9016 78.9328 27.1194C78.6226 27.3372 78.3784 27.6474 78.2002 28.05C78.0286 28.4526 77.9428 28.9344 77.9428 29.4954C77.9428 30.0564 78.0286 30.5382 78.2002 30.9408C78.3784 31.3434 78.6259 31.6503 78.9427 31.8615C79.2595 32.0727 79.6258 32.1783 80.0416 32.1783C80.6092 32.1783 81.0481 32.0298 81.3583 31.7328C81.6751 31.4292 81.8731 31.0134 81.9523 30.4854L83.071 30.5448C82.9852 31.0794 82.8136 31.5414 82.5562 31.9308C82.2988 32.3202 81.9589 32.6238 81.5365 32.8416C81.1141 33.0528 80.6158 33.1584 80.0416 33.1584ZM83.9815 33V25.971H85.0507V29.3568L84.5359 28.9806H88.8127L88.2979 29.3568V25.971H89.3671V33H88.2979V29.5746L88.8127 29.9508H84.5359L85.0507 29.5746V33H83.9815ZM90.021 33L92.5554 25.971H93.9117L96.4461 33H95.3076L94.6641 31.1685H91.7931L91.1595 33H90.021ZM92.1297 30.1983H94.3374L93.2286 26.9907L92.1297 30.1983ZM96.9903 33V25.971H99.792C100.294 25.971 100.726 26.0568 101.089 26.2284C101.452 26.4 101.732 26.6442 101.93 26.961C102.128 27.2778 102.227 27.654 102.227 28.0896C102.227 28.4064 102.155 28.6902 102.01 28.941C101.871 29.1918 101.683 29.3931 101.445 29.5449C101.214 29.6901 100.967 29.7726 100.703 29.7924L100.653 29.7033C101.095 29.7033 101.439 29.8056 101.683 30.0102C101.927 30.2082 102.069 30.5217 102.109 30.9507L102.297 33H101.218L101.049 31.0893C101.029 30.8055 100.934 30.5976 100.762 30.4656C100.591 30.327 100.31 30.2577 99.9207 30.2577H98.0595V33H96.9903ZM98.0595 29.2776H99.8118C100.214 29.2776 100.531 29.1786 100.762 28.9806C101 28.776 101.119 28.4889 101.119 28.1193C101.119 27.7431 101 27.456 100.762 27.258C100.525 27.0534 100.178 26.9511 99.7227 26.9511H98.0595V29.2776ZM104.664 33V26.9511H102.506V25.971H107.891V26.9511H105.733V33H104.664ZM108.307 33V25.971H112.881V26.9511H109.376V29.0004H112.762V29.9508H109.376V32.0199H112.96V33H108.307ZM113.966 33V25.971H116.767C117.269 25.971 117.701 26.0568 118.064 26.2284C118.427 26.4 118.708 26.6442 118.906 26.961C119.104 27.2778 119.203 27.654 119.203 28.0896C119.203 28.4064 119.13 28.6902 118.985 28.941C118.846 29.1918 118.658 29.3931 118.421 29.5449C118.19 29.6901 117.942 29.7726 117.678 29.7924L117.629 29.7033C118.071 29.7033 118.414 29.8056 118.658 30.0102C118.902 30.2082 119.044 30.5217 119.084 30.9507L119.272 33H118.193L118.025 31.0893C118.005 30.8055 117.909 30.5976 117.738 30.4656C117.566 30.327 117.285 30.2577 116.896 30.2577H115.035V33H113.966ZM115.035 29.2776H116.787C117.19 29.2776 117.507 29.1786 117.738 28.9806C117.975 28.776 118.094 28.4889 118.094 28.1193C118.094 27.7431 117.975 27.456 117.738 27.258C117.5 27.0534 117.153 26.9511 116.698 26.9511H115.035V29.2776ZM120.398 33V25.971H124.971V26.9511H121.467V29.0004H124.853V29.9508H121.467V32.0199H125.051V33H120.398ZM126.056 33V25.971H128.313C129.415 25.971 130.264 26.2779 130.858 26.8917C131.452 27.4989 131.749 28.3668 131.749 29.4954C131.749 30.6174 131.455 31.482 130.867 32.0892C130.287 32.6964 129.455 33 128.373 33H126.056ZM127.125 32.0199H128.313C129.092 32.0199 129.673 31.812 130.056 31.3962C130.445 30.9738 130.64 30.3402 130.64 29.4954C130.64 28.6374 130.445 28.0005 130.056 27.5847C129.673 27.1623 129.092 26.9511 128.313 26.9511H127.125V32.0199ZM131.916 34.089L134.846 25.575H135.856L132.936 34.089H131.916ZM136.754 33V25.971H141.318V26.9511H137.259L137.823 26.367V29.5944L137.259 29.0895H141.14V30.0399H137.259L137.823 29.535V33H136.754ZM145.206 33.1584C144.526 33.1584 143.942 33.0132 143.454 32.7228C142.965 32.4258 142.589 32.0034 142.325 31.4556C142.061 30.9078 141.929 30.2544 141.929 29.4954C141.929 28.7364 142.061 28.083 142.325 27.5352C142.589 26.9808 142.965 26.5551 143.454 26.2581C143.942 25.9611 144.526 25.8126 145.206 25.8126C145.893 25.8126 146.48 25.9611 146.968 26.2581C147.463 26.5551 147.84 26.9808 148.097 27.5352C148.361 28.083 148.493 28.7364 148.493 29.4954C148.493 30.2544 148.361 30.9078 148.097 31.4556C147.84 32.0034 147.463 32.4258 146.968 32.7228C146.48 33.0132 145.893 33.1584 145.206 33.1584ZM145.206 32.1783C145.662 32.1783 146.051 32.0727 146.374 31.8615C146.704 31.6503 146.955 31.3467 147.127 30.9507C147.298 30.5481 147.384 30.063 147.384 29.4954C147.384 28.9278 147.298 28.4427 147.127 28.0401C146.955 27.6375 146.704 27.3306 146.374 27.1194C146.051 26.9016 145.662 26.7927 145.206 26.7927C144.757 26.7927 144.371 26.9016 144.048 27.1194C143.724 27.3306 143.474 27.6375 143.295 28.0401C143.124 28.4427 143.038 28.9278 143.038 29.4954C143.038 30.063 143.124 30.5481 143.295 30.9507C143.474 31.3467 143.724 31.6503 144.048 31.8615C144.371 32.0727 144.757 32.1783 145.206 32.1783ZM149.338 33V25.971H152.139C152.641 25.971 153.073 26.0568 153.436 26.2284C153.799 26.4 154.08 26.6442 154.278 26.961C154.476 27.2778 154.575 27.654 154.575 28.0896C154.575 28.4064 154.502 28.6902 154.357 28.941C154.218 29.1918 154.03 29.3931 153.793 29.5449C153.562 29.6901 153.314 29.7726 153.05 29.7924L153.001 29.7033C153.443 29.7033 153.786 29.8056 154.03 30.0102C154.274 30.2082 154.416 30.5217 154.456 30.9507L154.644 33H153.565L153.397 31.0893C153.377 30.8055 153.281 30.5976 153.11 30.4656C152.938 30.327 152.657 30.2577 152.268 30.2577H150.407V33H149.338ZM150.407 29.2776H152.159C152.562 29.2776 152.879 29.1786 153.11 28.9806C153.347 28.776 153.466 28.4889 153.466 28.1193C153.466 27.7431 153.347 27.456 153.11 27.258C152.872 27.0534 152.525 26.9511 152.07 26.9511H150.407V29.2776ZM155.77 33V25.971H160.343V26.9511H156.839V29.0004H160.225V29.9508H156.839V32.0199H160.423V33H155.77ZM161.418 33V25.971H162.775L166.022 31.7031V25.971H167.091V33H165.685L162.488 27.3966V33H161.418ZM170.887 33.1584C170.326 33.1584 169.838 33.0561 169.422 32.8515C169.013 32.6469 168.69 32.3631 168.452 32.0001C168.214 31.6371 168.076 31.2147 168.036 30.7329L169.135 30.6636C169.181 30.9936 169.277 31.2741 169.422 31.5051C169.567 31.7295 169.762 31.9011 170.006 32.0199C170.257 32.1321 170.557 32.1882 170.907 32.1882C171.211 32.1882 171.468 32.1519 171.679 32.0793C171.897 32.0001 172.062 31.8846 172.174 31.7328C172.287 31.581 172.343 31.3962 172.343 31.1784C172.343 30.9804 172.293 30.8055 172.194 30.6537C172.102 30.4953 171.92 30.3534 171.65 30.228C171.386 30.096 170.996 29.9673 170.482 29.8419C169.921 29.7033 169.472 29.5515 169.135 29.3865C168.799 29.2215 168.554 29.0169 168.403 28.7727C168.257 28.5219 168.185 28.215 168.185 27.852C168.185 27.4494 168.28 27.0963 168.472 26.7927C168.67 26.4825 168.95 26.2416 169.313 26.07C169.676 25.8984 170.112 25.8126 170.62 25.8126C171.155 25.8126 171.61 25.9116 171.986 26.1096C172.369 26.3076 172.669 26.5782 172.887 26.9214C173.112 27.2646 173.25 27.6573 173.303 28.0995L172.204 28.1589C172.171 27.8883 172.089 27.6507 171.957 27.4461C171.825 27.2349 171.646 27.0732 171.422 26.961C171.198 26.8422 170.924 26.7828 170.6 26.7828C170.191 26.7828 169.868 26.8785 169.63 27.0699C169.399 27.2547 169.284 27.5022 169.284 27.8124C169.284 28.0104 169.33 28.1787 169.422 28.3173C169.521 28.4493 169.693 28.5648 169.937 28.6638C170.188 28.7628 170.541 28.8684 170.996 28.9806C171.604 29.1192 172.085 29.2908 172.442 29.4954C172.805 29.6934 173.062 29.9277 173.214 30.1983C173.366 30.4689 173.442 30.7758 173.442 31.119C173.442 31.5348 173.333 31.8978 173.115 32.208C172.904 32.5116 172.607 32.7459 172.224 32.9109C171.841 33.0759 171.396 33.1584 170.887 33.1584ZM174.389 33V25.971H175.458V33H174.389ZM179.513 33.1584C178.879 33.1584 178.322 33.0132 177.84 32.7228C177.358 32.4258 176.982 32.0034 176.711 31.4556C176.441 30.9078 176.305 30.2544 176.305 29.4954C176.305 28.743 176.437 28.0929 176.701 27.5451C176.972 26.9907 177.348 26.565 177.83 26.268C178.312 25.9644 178.876 25.8126 179.523 25.8126C180.394 25.8126 181.071 26.0304 181.552 26.466C182.034 26.9016 182.348 27.5055 182.493 28.2777L181.374 28.3371C181.282 27.8553 181.084 27.4791 180.78 27.2085C180.477 26.9313 180.058 26.7927 179.523 26.7927C179.094 26.7927 178.721 26.9016 178.404 27.1194C178.094 27.3372 177.85 27.6474 177.672 28.05C177.5 28.4526 177.414 28.9344 177.414 29.4954C177.414 30.0564 177.5 30.5382 177.672 30.9408C177.85 31.3434 178.097 31.6503 178.414 31.8615C178.731 32.0727 179.097 32.1783 179.513 32.1783C180.081 32.1783 180.52 32.0298 180.83 31.7328C181.147 31.4292 181.345 31.0134 181.424 30.4854L182.542 30.5448C182.457 31.0794 182.285 31.5414 182.028 31.9308C181.77 32.3202 181.43 32.6238 181.008 32.8416C180.586 33.0528 180.087 33.1584 179.513 33.1584ZM184.939 33L187.473 25.971H188.829L191.364 33H190.225L189.582 31.1685H186.711L186.077 33H184.939ZM187.047 30.1983H189.255L188.146 26.9907L187.047 30.1983ZM194.574 33.1584C193.941 33.1584 193.383 33.0132 192.901 32.7228C192.419 32.4258 192.043 32.0034 191.772 31.4556C191.502 30.9078 191.367 30.2544 191.367 29.4954C191.367 28.743 191.499 28.0929 191.763 27.5451C192.033 26.9907 192.409 26.565 192.891 26.268C193.373 25.9644 193.937 25.8126 194.584 25.8126C195.455 25.8126 196.132 26.0304 196.614 26.466C197.095 26.9016 197.409 27.5055 197.554 28.2777L196.435 28.3371C196.343 27.8553 196.145 27.4791 195.841 27.2085C195.538 26.9313 195.119 26.7927 194.584 26.7927C194.155 26.7927 193.782 26.9016 193.465 27.1194C193.155 27.3372 192.911 27.6474 192.733 28.05C192.561 28.4526 192.475 28.9344 192.475 29.4954C192.475 30.0564 192.561 30.5382 192.733 30.9408C192.911 31.3434 193.158 31.6503 193.475 31.8615C193.792 32.0727 194.158 32.1783 194.574 32.1783C195.142 32.1783 195.581 32.0298 195.891 31.7328C196.208 31.4292 196.406 31.0134 196.485 30.4854L197.604 30.5448C197.518 31.0794 197.346 31.5414 197.089 31.9308C196.831 32.3202 196.491 32.6238 196.069 32.8416C195.647 33.0528 195.148 33.1584 194.574 33.1584ZM201.335 33.1584C200.701 33.1584 200.144 33.0132 199.662 32.7228C199.18 32.4258 198.804 32.0034 198.533 31.4556C198.263 30.9078 198.127 30.2544 198.127 29.4954C198.127 28.743 198.259 28.0929 198.523 27.5451C198.794 26.9907 199.17 26.565 199.652 26.268C200.134 25.9644 200.698 25.8126 201.345 25.8126C202.216 25.8126 202.892 26.0304 203.374 26.466C203.856 26.9016 204.17 27.5055 204.315 28.2777L203.196 28.3371C203.104 27.8553 202.906 27.4791 202.602 27.2085C202.298 26.9313 201.879 26.7927 201.345 26.7927C200.916 26.7927 200.543 26.9016 200.226 27.1194C199.916 27.3372 199.672 27.6474 199.493 28.05C199.322 28.4526 199.236 28.9344 199.236 29.4954C199.236 30.0564 199.322 30.5382 199.493 30.9408C199.672 31.3434 199.919 31.6503 200.236 31.8615C200.553 32.0727 200.919 32.1783 201.335 32.1783C201.902 32.1783 202.341 32.0298 202.652 31.7328C202.968 31.4292 203.166 31.0134 203.246 30.4854L204.364 30.5448C204.278 31.0794 204.107 31.5414 203.849 31.9308C203.592 32.3202 203.252 32.6238 202.83 32.8416C202.407 33.0528 201.909 33.1584 201.335 33.1584ZM208.165 33.1584C207.485 33.1584 206.901 33.0132 206.412 32.7228C205.924 32.4258 205.548 32.0034 205.284 31.4556C205.02 30.9078 204.888 30.2544 204.888 29.4954C204.888 28.7364 205.02 28.083 205.284 27.5352C205.548 26.9808 205.924 26.5551 206.412 26.2581C206.901 25.9611 207.485 25.8126 208.165 25.8126C208.851 25.8126 209.439 25.9611 209.927 26.2581C210.422 26.5551 210.798 26.9808 211.056 27.5352C211.32 28.083 211.452 28.7364 211.452 29.4954C211.452 30.2544 211.32 30.9078 211.056 31.4556C210.798 32.0034 210.422 32.4258 209.927 32.7228C209.439 33.0132 208.851 33.1584 208.165 33.1584ZM208.165 32.1783C208.62 32.1783 209.01 32.0727 209.333 31.8615C209.663 31.6503 209.914 31.3467 210.085 30.9507C210.257 30.5481 210.343 30.063 210.343 29.4954C210.343 28.9278 210.257 28.4427 210.085 28.0401C209.914 27.6375 209.663 27.3306 209.333 27.1194C209.01 26.9016 208.62 26.7927 208.165 26.7927C207.716 26.7927 207.33 26.9016 207.006 27.1194C206.683 27.3306 206.432 27.6375 206.254 28.0401C206.082 28.4427 205.997 28.9278 205.997 29.4954C205.997 30.063 206.082 30.5481 206.254 30.9507C206.432 31.3467 206.683 31.6503 207.006 31.8615C207.33 32.0727 207.716 32.1783 208.165 32.1783ZM215.025 33.1584C214.471 33.1584 213.986 33.0528 213.57 32.8416C213.161 32.6238 212.844 32.3169 212.619 31.9209C212.402 31.5249 212.293 31.0563 212.293 30.5151V25.9611H213.362V30.5151C213.362 31.0497 213.507 31.4622 213.798 31.7526C214.088 32.0364 214.497 32.1783 215.025 32.1783C215.553 32.1783 215.962 32.0364 216.253 31.7526C216.543 31.4622 216.688 31.0497 216.688 30.5151V25.9611H217.758V30.5151C217.758 31.0563 217.645 31.5249 217.421 31.9209C217.203 32.3169 216.89 32.6238 216.48 32.8416C216.071 33.0528 215.586 33.1584 215.025 33.1584ZM219.163 33V25.971H220.52L223.767 31.7031V25.971H224.836V33H223.43L220.232 27.3966V33H219.163ZM227.311 33V26.9511H225.153V25.971H230.538V26.9511H228.38V33H227.311ZM229.643 33L232.177 25.971H233.534L236.068 33H234.93L234.286 31.1685H231.415L230.782 33H229.643ZM231.752 30.1983H233.959L232.851 26.9907L231.752 30.1983ZM236.612 33V25.971H237.969L241.216 31.7031V25.971H242.285V33H240.879L237.682 27.3966V33H236.612ZM244.76 33V26.9511H242.602V25.971H247.987V26.9511H245.829V33H244.76ZM250.802 33.1584C250.241 33.1584 249.753 33.0561 249.337 32.8515C248.928 32.6469 248.604 32.3631 248.367 32.0001C248.129 31.6371 247.99 31.2147 247.951 30.7329L249.05 30.6636C249.096 30.9936 249.192 31.2741 249.337 31.5051C249.482 31.7295 249.677 31.9011 249.921 32.0199C250.172 32.1321 250.472 32.1882 250.822 32.1882C251.125 32.1882 251.383 32.1519 251.594 32.0793C251.812 32.0001 251.977 31.8846 252.089 31.7328C252.201 31.581 252.257 31.3962 252.257 31.1784C252.257 30.9804 252.208 30.8055 252.109 30.6537C252.016 30.4953 251.835 30.3534 251.564 30.228C251.3 30.096 250.911 29.9673 250.396 29.8419C249.835 29.7033 249.386 29.5515 249.05 29.3865C248.713 29.2215 248.469 29.0169 248.317 28.7727C248.172 28.5219 248.099 28.215 248.099 27.852C248.099 27.4494 248.195 27.0963 248.386 26.7927C248.584 26.4825 248.865 26.2416 249.228 26.07C249.591 25.8984 250.027 25.8126 250.535 25.8126C251.069 25.8126 251.525 25.9116 251.901 26.1096C252.284 26.3076 252.584 26.5782 252.802 26.9214C253.026 27.2646 253.165 27.6573 253.218 28.0995L252.119 28.1589C252.086 27.8883 252.003 27.6507 251.871 27.4461C251.739 27.2349 251.561 27.0732 251.337 26.961C251.112 26.8422 250.838 26.7828 250.515 26.7828C250.106 26.7828 249.782 26.8785 249.545 27.0699C249.314 27.2547 249.198 27.5022 249.198 27.8124C249.198 28.0104 249.244 28.1787 249.337 28.3173C249.436 28.4493 249.607 28.5648 249.852 28.6638C250.102 28.7628 250.456 28.8684 250.911 28.9806C251.518 29.1192 252 29.2908 252.356 29.4954C252.719 29.6934 252.977 29.9277 253.129 30.1983C253.28 30.4689 253.356 30.7758 253.356 31.119C253.356 31.5348 253.247 31.8978 253.03 32.208C252.818 32.5116 252.521 32.7459 252.139 32.9109C251.756 33.0759 251.31 33.1584 250.802 33.1584ZM76.5964 46L79.1308 38.971H80.4871L83.0215 46H81.883L81.2395 44.1685H78.3685L77.7349 46H76.5964ZM78.7051 43.1983H80.9128L79.804 39.9907L78.7051 43.1983ZM83.5657 46V38.971H84.922L88.1692 44.7031V38.971H89.2384V46H87.8326L84.6349 40.3966V46H83.5657ZM90.4714 46V38.971H92.7286C93.8308 38.971 94.6789 39.2779 95.2729 39.8917C95.8669 40.4989 96.1639 41.3668 96.1639 42.4954C96.1639 43.6174 95.8702 44.482 95.2828 45.0892C94.702 45.6964 93.8704 46 92.788 46H90.4714ZM91.5406 45.0199H92.7286C93.5074 45.0199 94.0882 44.812 94.471 44.3962C94.8604 43.9738 95.0551 43.3402 95.0551 42.4954C95.0551 41.6374 94.8604 41.0005 94.471 40.5847C94.0882 40.1623 93.5074 39.9511 92.7286 39.9511H91.5406V45.0199ZM100.691 46V39.9511H98.5324V38.971H103.918V39.9511H101.76V46H100.691ZM103.023 46L105.557 38.971H106.914L109.448 46H108.309L107.666 44.1685H104.795L104.161 46H103.023ZM105.132 43.1983H107.339L106.23 39.9907L105.132 43.1983ZM109.492 46L111.828 42.4756L109.512 38.971H110.769L112.502 41.644L114.204 38.971H115.452L113.135 42.4558L115.482 46H114.224L112.482 43.2874L110.739 46H109.492ZM118.283 46V38.971H120.907C121.712 38.971 122.339 39.1657 122.788 39.5551C123.236 39.9379 123.461 40.4725 123.461 41.1589C123.461 41.6143 123.358 42.0103 123.154 42.3469C122.949 42.6769 122.656 42.931 122.273 43.1092C121.897 43.2808 121.441 43.3666 120.907 43.3666H119.352V46H118.283ZM119.352 42.3964H120.877C121.359 42.3964 121.725 42.2941 121.976 42.0895C122.227 41.8783 122.352 41.5681 122.352 41.1589C122.352 40.7563 122.227 40.456 121.976 40.258C121.725 40.0534 121.359 39.9511 120.877 39.9511H119.352V42.3964ZM124.299 46V38.971H127.101C127.602 38.971 128.035 39.0568 128.398 39.2284C128.761 39.4 129.041 39.6442 129.239 39.961C129.437 40.2778 129.536 40.654 129.536 41.0896C129.536 41.4064 129.464 41.6902 129.318 41.941C129.18 42.1918 128.992 42.3931 128.754 42.5449C128.523 42.6901 128.276 42.7726 128.012 42.7924L127.962 42.7033C128.404 42.7033 128.748 42.8056 128.992 43.0102C129.236 43.2082 129.378 43.5217 129.417 43.9507L129.606 46H128.526L128.358 44.0893C128.338 43.8055 128.243 43.5976 128.071 43.4656C127.899 43.327 127.619 43.2577 127.23 43.2577H125.368V46H124.299ZM125.368 42.2776H127.121C127.523 42.2776 127.84 42.1786 128.071 41.9806C128.309 41.776 128.427 41.4889 128.427 41.1193C128.427 40.7431 128.309 40.456 128.071 40.258C127.833 40.0534 127.487 39.9511 127.032 39.9511H125.368V42.2776ZM129.981 46L132.515 38.971H133.872L136.406 46H135.268L134.624 44.1685H131.753L131.12 46H129.981ZM132.09 43.1983H134.297L133.189 39.9907L132.09 43.1983ZM139.616 46.1584C138.983 46.1584 138.425 46.0132 137.943 45.7228C137.462 45.4258 137.085 45.0034 136.815 44.4556C136.544 43.9078 136.409 43.2544 136.409 42.4954C136.409 41.743 136.541 41.0929 136.805 40.5451C137.075 39.9907 137.452 39.565 137.933 39.268C138.415 38.9644 138.98 38.8126 139.626 38.8126C140.498 38.8126 141.174 39.0304 141.656 39.466C142.138 39.9016 142.451 40.5055 142.596 41.2777L141.478 41.3371C141.385 40.8553 141.187 40.4791 140.884 40.2085C140.58 39.9313 140.161 39.7927 139.626 39.7927C139.197 39.7927 138.824 39.9016 138.508 40.1194C138.197 40.3372 137.953 40.6474 137.775 41.05C137.603 41.4526 137.518 41.9344 137.518 42.4954C137.518 43.0564 137.603 43.5382 137.775 43.9408C137.953 44.3434 138.201 44.6503 138.518 44.8615C138.834 45.0727 139.201 45.1783 139.616 45.1783C140.184 45.1783 140.623 45.0298 140.933 44.7328C141.25 44.4292 141.448 44.0134 141.527 43.4854L142.646 43.5448C142.56 44.0794 142.388 44.5414 142.131 44.9308C141.874 45.3202 141.534 45.6238 141.111 45.8416C140.689 46.0528 140.191 46.1584 139.616 46.1584ZM144.866 46V39.9511H142.708V38.971H148.093V39.9511H145.935V46H144.866ZM148.509 46V38.971H149.578V46H148.509ZM152.055 46V39.9511H149.896V38.971H155.282V39.9511H153.124V46H152.055ZM155.698 46V38.971H156.767V46H155.698ZM160.891 46.1584C160.212 46.1584 159.628 46.0132 159.139 45.7228C158.651 45.4258 158.275 45.0034 158.011 44.4556C157.747 43.9078 157.615 43.2544 157.615 42.4954C157.615 41.7364 157.747 41.083 158.011 40.5352C158.275 39.9808 158.651 39.5551 159.139 39.2581C159.628 38.9611 160.212 38.8126 160.891 38.8126C161.578 38.8126 162.165 38.9611 162.654 39.2581C163.149 39.5551 163.525 39.9808 163.782 40.5352C164.046 41.083 164.178 41.7364 164.178 42.4954C164.178 43.2544 164.046 43.9078 163.782 44.4556C163.525 45.0034 163.149 45.4258 162.654 45.7228C162.165 46.0132 161.578 46.1584 160.891 46.1584ZM160.891 45.1783C161.347 45.1783 161.736 45.0727 162.06 44.8615C162.39 44.6503 162.64 44.3467 162.812 43.9507C162.984 43.5481 163.069 43.063 163.069 42.4954C163.069 41.9278 162.984 41.4427 162.812 41.0401C162.64 40.6375 162.39 40.3306 162.06 40.1194C161.736 39.9016 161.347 39.7927 160.891 39.7927C160.443 39.7927 160.057 39.9016 159.733 40.1194C159.41 40.3306 159.159 40.6375 158.981 41.0401C158.809 41.4427 158.723 41.9278 158.723 42.4954C158.723 43.063 158.809 43.5481 158.981 43.9507C159.159 44.3467 159.41 44.6503 159.733 44.8615C160.057 45.0727 160.443 45.1783 160.891 45.1783ZM165.023 46V38.971H166.379L169.627 44.7031V38.971H170.696V46H169.29L166.092 40.3966V46H165.023ZM171.929 46V38.971H176.502V39.9511H172.998V42.0004H176.384V42.9508H172.998V45.0199H176.582V46H171.929ZM177.587 46V38.971H180.389C180.89 38.971 181.323 39.0568 181.686 39.2284C182.049 39.4 182.329 39.6442 182.527 39.961C182.725 40.2778 182.824 40.654 182.824 41.0896C182.824 41.4064 182.752 41.6902 182.606 41.941C182.468 42.1918 182.28 42.3931 182.042 42.5449C181.811 42.6901 181.564 42.7726 181.3 42.7924L181.25 42.7033C181.692 42.7033 182.036 42.8056 182.28 43.0102C182.524 43.2082 182.666 43.5217 182.705 43.9507L182.894 46H181.814L181.646 44.0893C181.626 43.8055 181.531 43.5976 181.359 43.4656C181.187 43.327 180.907 43.2577 180.518 43.2577H178.656V46H177.587ZM178.656 42.2776H180.409C180.811 42.2776 181.128 42.1786 181.359 41.9806C181.597 41.776 181.715 41.4889 181.715 41.1193C181.715 40.7431 181.597 40.456 181.359 40.258C181.121 40.0534 180.775 39.9511 180.32 39.9511H178.656V42.2776ZM186.408 46.1584C185.847 46.1584 185.359 46.0561 184.943 45.8515C184.534 45.6469 184.211 45.3631 183.973 45.0001C183.735 44.6371 183.597 44.2147 183.557 43.7329L184.656 43.6636C184.702 43.9936 184.798 44.2741 184.943 44.5051C185.088 44.7295 185.283 44.9011 185.527 45.0199C185.778 45.1321 186.078 45.1882 186.428 45.1882C186.732 45.1882 186.989 45.1519 187.2 45.0793C187.418 45.0001 187.583 44.8846 187.695 44.7328C187.808 44.581 187.864 44.3962 187.864 44.1784C187.864 43.9804 187.814 43.8055 187.715 43.6537C187.623 43.4953 187.441 43.3534 187.171 43.228C186.907 43.096 186.517 42.9673 186.002 42.8419C185.441 42.7033 184.993 42.5515 184.656 42.3865C184.319 42.2215 184.075 42.0169 183.923 41.7727C183.778 41.5219 183.706 41.215 183.706 40.852C183.706 40.4494 183.801 40.0963 183.993 39.7927C184.191 39.4825 184.471 39.2416 184.834 39.07C185.197 38.8984 185.633 38.8126 186.141 38.8126C186.676 38.8126 187.131 38.9116 187.507 39.1096C187.89 39.3076 188.19 39.5782 188.408 39.9214C188.633 40.2646 188.771 40.6573 188.824 41.0995L187.725 41.1589C187.692 40.8883 187.61 40.6507 187.478 40.4461C187.346 40.2349 187.167 40.0732 186.943 39.961C186.719 39.8422 186.445 39.7828 186.121 39.7828C185.712 39.7828 185.389 39.8785 185.151 40.0699C184.92 40.2547 184.805 40.5022 184.805 40.8124C184.805 41.0104 184.851 41.1787 184.943 41.3173C185.042 41.4493 185.214 41.5648 185.458 41.6638C185.709 41.7628 186.062 41.8684 186.517 41.9806C187.124 42.1192 187.606 42.2908 187.963 42.4954C188.326 42.6934 188.583 42.9277 188.735 43.1983C188.887 43.4689 188.963 43.7758 188.963 44.119C188.963 44.5348 188.854 44.8978 188.636 45.208C188.425 45.5116 188.128 45.7459 187.745 45.9109C187.362 46.0759 186.917 46.1584 186.408 46.1584Z" fill="white"/>
</svg>
